<svg width="110" height="142" viewBox="0 0 110 142" fill="none" xmlns="http://www.w3.org/2000/svg">
<path d="M36.125 66.6094L31.2031 61.6875C34.849 58.0417 38.6641 55.3073 42.6484 53.4844C46.6328 51.6615 50.9167 50.75 55.5 50.75C60.0833 50.75 64.3672 51.6615 68.3516 53.4844C72.3359 55.3073 76.151 58.0417 79.7969 61.6875L74.875 66.6094C71.6979 63.4323 68.4948 61.1667 65.2656 59.8125C62.0365 58.4583 58.7812 57.7812 55.5 57.7812C52.2187 57.7812 48.9635 58.4583 45.7344 59.8125C42.5052 61.1667 39.3021 63.4323 36.125 66.6094ZM22.9219 53.4062L18 48.4844C22.8437 43.5365 28.4818 39.5521 34.9141 36.5312C41.3464 33.5104 48.2083 32 55.5 32C62.7917 32 69.6536 33.5104 76.0859 36.5312C82.5182 39.5521 88.1562 43.5365 93 48.4844L88.0781 53.4062C83.4948 49.0312 78.4818 45.5417 73.0391 42.9375C67.5964 40.3333 61.75 39.0312 55.5 39.0312C49.25 39.0312 43.4036 40.3333 37.9609 42.9375C32.5182 45.5417 27.5052 49.0312 22.9219 53.4062ZM55.5 85.9844L67.0625 74.3437C65.5521 72.8333 63.8203 71.6484 61.8672 70.7891C59.9141 69.9297 57.7917 69.5 55.5 69.5C53.2083 69.5 51.0859 69.9297 49.1328 70.7891C47.1797 71.6484 45.4479 72.8333 43.9375 74.3437L55.5 85.9844Z" fill="white"/>
<path fill-rule="evenodd" clip-rule="evenodd" d="M55 110C85.3757 110 110 85.3757 110 55C110 24.6243 85.3757 0 55 0C24.6243 0 0 24.6243 0 55C0 85.3757 24.6243 110 55 110ZM55 99C79.3005 99 99 79.5244 99 55.5C99 31.4756 79.3005 12 55 12C30.6995 12 11 31.4756 11 55.5C11 79.5244 30.6995 99 55 99Z" fill="white"/>
<path d="M55.5 142L48.1388 102.25L62.8612 102.25L55.5 142Z" fill="white"/>
</svg>
