<svg width="56" height="193" viewBox="0 0 56 193" fill="none" xmlns="http://www.w3.org/2000/svg">
<path d="M23 23H33V178L28 193L23 178V23Z" fill="white"/>
<path fill-rule="evenodd" clip-rule="evenodd" d="M28 56C43.464 56 56 43.464 56 28C56 12.536 43.464 0 28 0C12.536 0 0 12.536 0 28C0 43.464 12.536 56 28 56ZM31.5004 11C35.0146 11 38.2649 12.8652 40.8078 15.6698C43.3597 18.4844 44.9796 22.0147 45.3298 24.856C45.4649 25.9523 46.4631 26.7315 47.5594 26.5964C48.6556 26.4613 49.4348 25.4631 49.2997 24.3668C48.8351 20.5967 46.7977 16.3212 43.7711 12.983C40.7353 9.63479 36.4858 6.99999 31.5004 6.99999C30.3958 6.99999 29.5004 7.89542 29.5004 8.99999C29.5004 10.1046 30.3958 11 31.5004 11Z" fill="white"/>
</svg>
